<svg xmlns="http://www.w3.org/2000/svg" xmlns:xlink="http://www.w3.org/1999/xlink" version="1.1" xml:space="preserve" viewBox="-389.48 -74.51 1892.23 1290.98">
<desc>Created with Fabric.js 3.5.0</desc>
<defs>
</defs>
<rect x="0" y="0" width="100%" height="100%" fill="rgba(255,255,255,0)" data-darkreader-inline-fill="" style="--darkreader-inline-fill: rgba(24, 26, 27, 0);"/>
<g transform="matrix(0 -0.8333 0.8333 0 499.98 500.0133)" id="237545">
<g style="" vector-effect="non-scaling-stroke">
		<g transform="matrix(1 0 0 1 0 0)" id="Background">
<linearGradient id="SVGID_27" gradientUnits="userSpaceOnUse" gradientTransform="matrix(1 0 0 1 -400 -600)" x1="-100" y1="1100" x2="900" y2="100">
<stop offset="0%" style="stop-color: rgb(212, 217, 250); stop-opacity: 1; --darkreader-inline-stopcolor: #b3cff6;" data-darkreader-inline-stopcolor=""/>
<stop offset="99.8%" style="stop-color: rgb(240, 199, 255); stop-opacity: 1; --darkreader-inline-stopcolor: #e7a5ff;" data-darkreader-inline-stopcolor=""/>
</linearGradient>
<rect style="stroke: none; stroke-width: 1; stroke-dasharray: none; stroke-linecap: butt; stroke-dashoffset: 0; stroke-linejoin: miter; stroke-miterlimit: 4; fill: url(&quot;#SVGID_27&quot;); fill-rule: nonzero; opacity: 1; --darkreader-inline-stroke: none;" x="-400" y="-600" rx="0" ry="0" width="800" height="1200" data-darkreader-inline-stroke=""/>
</g>
		<g transform="matrix(1 0 0 1 357.5252 -651.4997)" id="Graphic_Elements" clip-path="url(#CLIPPATH_40)">
<linearGradient id="SVGID_28" gradientUnits="userSpaceOnUse" gradientTransform="matrix(1 0 0 1 0 0)" x1="425.5979" y1="-51.4998" x2="1089.4521" y2="-51.4998">
<stop offset="0%" style="stop-color: rgb(58, 11, 199); stop-opacity: 1; --darkreader-inline-stopcolor: #7043f5;" data-darkreader-inline-stopcolor=""/>
<stop offset="100%" style="stop-color: rgb(241, 144, 252); stop-opacity: 1; --darkreader-inline-stopcolor: #ef80fc;" data-darkreader-inline-stopcolor=""/>
</linearGradient>
<clipPath id="CLIPPATH_40">
	<rect transform="matrix(1 0 0 1 -357.5252 651.4998)" id="SVGID_00000067201863293425637530000003733348231315325886_" x="-400" y="-600" rx="0" ry="0" width="800" height="1200"/>
</clipPath>
<path style="stroke: none; stroke-width: 1; stroke-dasharray: none; stroke-linecap: butt; stroke-dashoffset: 0; stroke-linejoin: miter; stroke-miterlimit: 4; fill: url(&quot;#SVGID_28&quot;); fill-rule: nonzero; opacity: 1; --darkreader-inline-stroke: none;" transform=" translate(-757.5252, 51.4998)" d="M 1082.038 -153.149 l -0.434 -0.434 c -9.887 -9.885 -25.916 -9.884 -35.802 0.002 l -4.25 4.25 c -9.887 9.886 -25.915 9.887 -35.802 0.002 l -0.434 -0.434 c -9.888 -9.885 -25.917 -9.884 -35.803 0.002 l -38.328 38.328 c -10.006 10.006 -26.229 10.006 -36.235 0 l 0 0 c -10.006 -10.006 -10.006 -26.229 0 -36.235 l 56.647 -56.647 c 9.886 -9.886 9.886 -25.915 -0.001 -35.8 l -0.434 -0.434 c -9.887 -9.886 -25.916 -9.885 -35.802 0.001 L 790.697 -115.886 c -10.006 10.006 -26.229 10.006 -36.235 0 l 0 0 c -10.006 -10.006 -10.006 -26.229 0 -36.235 l 124.662 -124.662 c 9.886 -9.886 9.886 -25.915 0 -35.801 l -0.434 -0.434 c -9.887 -9.886 -25.916 -9.885 -35.802 0.001 L 557.548 -27.675 c -10.006 10.006 -10.006 26.229 0 36.235 h 0 c 10.006 10.006 10.006 26.229 0 36.235 L 433.102 169.24 c -10.006 10.006 -10.006 26.229 0 36.235 v 0 c 10.006 10.006 26.229 10.006 36.235 0 L 593.783 81.029 c 10.006 -10.006 26.229 -10.006 36.235 0 l 0 0 c 10.006 10.006 10.006 26.229 0 36.235 l -56.429 56.429 c -10.006 10.006 -10.006 26.229 0 36.235 v 0 c 10.006 10.006 26.229 10.006 36.235 0 l 38.114 -38.114 c 10.006 -10.006 26.229 -10.006 36.235 0 l 0 0 c 10.006 10.006 26.229 10.006 36.235 0 l 3.82 -3.82 c 10.006 -10.006 26.229 -10.006 36.235 0 v 0 c 10.006 10.006 26.229 10.006 36.235 0 l 285.343 -285.342 C 1091.924 -127.234 1091.924 -143.263 1082.038 -153.149 z" stroke-linecap="round" data-darkreader-inline-stroke=""/>
</g>
		<g transform="matrix(1 0 0 1 209.173 -744.5775)" id="Graphic_Elements" clip-path="url(#CLIPPATH_41)">
<linearGradient id="SVGID_29" gradientUnits="userSpaceOnUse" gradientTransform="matrix(1 0 0 1 0 0)" x1="314.5621" y1="-144.5771" x2="903.7843" y2="-144.5771">
<stop offset="0%" style="stop-color: rgb(75, 75, 250); stop-opacity: 1; --darkreader-inline-stopcolor: #4f8efa;" data-darkreader-inline-stopcolor=""/>
<stop offset="100%" style="stop-color: rgb(241, 144, 252); stop-opacity: 1; --darkreader-inline-stopcolor: #ef80fc;" data-darkreader-inline-stopcolor=""/>
</linearGradient>
<clipPath id="CLIPPATH_41">
	<rect transform="matrix(1 0 0 1 -209.173 744.5775)" id="SVGID_00000067201863293425637530000003733348231315325886_" x="-400" y="-600" rx="0" ry="0" width="800" height="1200"/>
</clipPath>
<path style="stroke: none; stroke-width: 1; stroke-dasharray: none; stroke-linecap: butt; stroke-dashoffset: 0; stroke-linejoin: miter; stroke-miterlimit: 4; fill: url(&quot;#SVGID_29&quot;); fill-rule: nonzero; opacity: 1; --darkreader-inline-stroke: none;" transform=" translate(-609.173, 144.5775)" d="M 609.173 -61.174 L 609.173 -61.174 c 9.784 9.784 9.784 25.647 0 35.432 L 534.49 48.94 c -9.784 9.784 -9.784 25.647 0 35.432 l 0 0 c 9.784 9.784 9.784 25.647 0 35.431 l -15.668 15.668 c -9.784 9.784 -9.784 25.647 0 35.432 l 0 0 c 9.784 9.784 25.648 9.784 35.432 0 L 806.096 -80.939 c 9.784 -9.784 9.784 -25.647 0 -35.432 l 0 0 c -9.784 -9.784 -9.784 -25.647 0 -35.431 l 15.667 -15.667 c 9.784 -9.784 9.784 -25.647 0 -35.432 v 0 c -9.784 -9.784 -9.784 -25.647 0 -35.431 l 74.683 -74.683 c 9.784 -9.784 9.784 -25.647 0 -35.431 l 0 0 c -9.784 -9.784 -25.647 -9.784 -35.432 0 l -41.909 41.909 c -9.784 9.784 -25.647 9.784 -35.432 0 h 0 c -9.784 -9.784 -25.647 -9.784 -35.432 0 L 693.6 -251.896 c -9.784 9.784 -25.647 9.784 -35.432 0 v 0 c -9.784 -9.784 -9.784 -25.647 0 -35.432 l 21.868 -21.868 c 9.784 -9.784 9.784 -25.647 0 -35.432 l 0 0 c -9.784 -9.784 -9.784 -25.647 0 -35.432 l 44.566 -44.566 c 9.784 -9.784 9.784 -25.647 0 -35.432 l 0 0 c -9.784 -9.784 -25.647 -9.784 -35.431 0 l -44.566 44.566 c -9.784 9.784 -25.647 9.784 -35.432 0 l 0 0 c -9.784 -9.784 -25.647 -9.784 -35.431 0 L 321.9 -163.649 c -9.784 9.784 -9.784 25.647 0 35.431 l 0 0 c 9.784 9.784 25.647 9.784 35.431 0 l 44.566 -44.566 c 9.784 -9.784 25.647 -9.784 35.432 0 l 0 0 c 9.784 9.784 9.784 25.647 0 35.432 l -44.566 44.566 c -9.784 9.784 -9.784 25.647 0 35.432 v 0 c 9.784 9.784 9.784 25.647 0 35.431 L 370.895 -0.055 c -9.784 9.784 -9.784 25.647 0 35.432 l 0 0 c 9.784 9.784 25.647 9.784 35.431 0 l 54.642 -54.642 c 9.784 -9.784 25.647 -9.784 35.431 0 h 0 c 9.784 9.784 25.647 9.784 35.431 0 l 41.909 -41.909 C 583.526 -70.959 599.389 -70.959 609.173 -61.174 z" stroke-linecap="round" data-darkreader-inline-stroke=""/>
</g>
		<g transform="matrix(1 0 0 1 337.595 -382.568)" id="Graphic_Elements" clip-path="url(#CLIPPATH_42)">
<linearGradient id="SVGID_30" gradientUnits="userSpaceOnUse" gradientTransform="matrix(1 0 0 1 -737.595 -217.432)" x1="711.9733" y1="217.4318" x2="763.2169" y2="217.4318">
<stop offset="0%" style="stop-color: rgb(118, 75, 250); stop-opacity: 1; --darkreader-inline-stopcolor: #794ffa;" data-darkreader-inline-stopcolor=""/>
<stop offset="100%" style="stop-color: rgb(241, 144, 252); stop-opacity: 1; --darkreader-inline-stopcolor: #ef80fc;" data-darkreader-inline-stopcolor=""/>
</linearGradient>
<clipPath id="CLIPPATH_42">
	<rect transform="matrix(1 0 0 1 -337.595 382.568)" id="SVGID_00000067201863293425637530000003733348231315325886_" x="-400" y="-600" rx="0" ry="0" width="800" height="1200"/>
</clipPath>
<circle style="stroke: none; stroke-width: 1; stroke-dasharray: none; stroke-linecap: butt; stroke-dashoffset: 0; stroke-linejoin: miter; stroke-miterlimit: 4; fill: url(&quot;#SVGID_30&quot;); fill-rule: nonzero; opacity: 1; --darkreader-inline-stroke: none;" cx="0" cy="0" r="25.622" data-darkreader-inline-stroke=""/>
</g>
		<g transform="matrix(1 0 0 1 -52.024 -533.031)" id="Graphic_Elements" clip-path="url(#CLIPPATH_43)">
<linearGradient id="SVGID_31" gradientUnits="userSpaceOnUse" gradientTransform="matrix(1 0 0 1 -347.976 -66.969)" x1="322.3542" y1="66.9691" x2="373.5979" y2="66.9691">
<stop offset="0%" style="stop-color: rgb(75, 75, 250); stop-opacity: 1; --darkreader-inline-stopcolor: #4f8efa;" data-darkreader-inline-stopcolor=""/>
<stop offset="100%" style="stop-color: rgb(241, 144, 252); stop-opacity: 1; --darkreader-inline-stopcolor: #ef80fc;" data-darkreader-inline-stopcolor=""/>
</linearGradient>
<clipPath id="CLIPPATH_43">
	<rect transform="matrix(1 0 0 1 52.024 533.031)" id="SVGID_00000067201863293425637530000003733348231315325886_" x="-400" y="-600" rx="0" ry="0" width="800" height="1200"/>
</clipPath>
<circle style="stroke: none; stroke-width: 1; stroke-dasharray: none; stroke-linecap: butt; stroke-dashoffset: 0; stroke-linejoin: miter; stroke-miterlimit: 4; fill: url(&quot;#SVGID_31&quot;); fill-rule: nonzero; opacity: 1; --darkreader-inline-stroke: none;" cx="0" cy="0" r="25.622" data-darkreader-inline-stroke=""/>
</g>
		<g transform="matrix(1 0 0 1 -565.1745 263.736)" id="Graphic_Elements" clip-path="url(#CLIPPATH_44)">
<linearGradient id="SVGID_32" gradientUnits="userSpaceOnUse" gradientTransform="matrix(1 0 0 1 0 0)" x1="-393.378" y1="863.7355" x2="195.8441" y2="863.7355">
<stop offset="0%" style="stop-color: rgb(241, 216, 252); stop-opacity: 1; --darkreader-inline-stopcolor: #e4b4f9;" data-darkreader-inline-stopcolor=""/>
<stop offset="100%" style="stop-color: rgb(85, 48, 199); stop-opacity: 1; --darkreader-inline-stopcolor: #6c4bd3;" data-darkreader-inline-stopcolor=""/>
</linearGradient>
<clipPath id="CLIPPATH_44">
	<rect transform="matrix(1 0 0 1 565.1745 -263.736)" id="SVGID_00000067201863293425637530000003733348231315325886_" x="-400" y="-600" rx="0" ry="0" width="800" height="1200"/>
</clipPath>
<path style="stroke: none; stroke-width: 1; stroke-dasharray: none; stroke-linecap: butt; stroke-dashoffset: 0; stroke-linejoin: miter; stroke-miterlimit: 4; fill: url(&quot;#SVGID_32&quot;); fill-rule: nonzero; opacity: 1; --darkreader-inline-stroke: none;" transform=" translate(165.1745, -863.736)" d="M -165.175 947.138 L -165.175 947.138 c 9.784 9.784 9.784 25.647 0 35.432 l -74.683 74.683 c -9.784 9.784 -9.784 25.647 0 35.432 h 0 c 9.784 9.784 9.784 25.647 0 35.432 l -15.667 15.667 c -9.784 9.784 -9.784 25.647 0 35.432 l 0 0 c 9.784 9.784 25.647 9.784 35.432 0 L 31.748 927.374 c 9.784 -9.784 9.784 -25.647 0 -35.432 l 0 0 c -9.784 -9.784 -9.784 -25.647 0 -35.432 l 15.667 -15.667 c 9.784 -9.784 9.784 -25.647 0 -35.432 v 0 c -9.784 -9.784 -9.784 -25.647 0 -35.431 l 74.683 -74.683 c 9.784 -9.784 9.784 -25.647 0 -35.431 l 0 0 c -9.784 -9.784 -25.647 -9.784 -35.431 0 l -41.909 41.909 c -9.784 9.784 -25.647 9.784 -35.431 0 l 0 0 c -9.784 -9.784 -25.647 -9.784 -35.432 0 l -54.642 54.642 c -9.784 9.784 -25.647 9.784 -35.431 0 l 0 0 c -9.784 -9.784 -9.784 -25.647 0 -35.431 l 21.868 -21.868 c 9.784 -9.784 9.784 -25.647 0 -35.432 h 0 c -9.784 -9.784 -9.784 -25.647 0 -35.432 l 44.566 -44.566 c 9.784 -9.784 9.784 -25.647 0 -35.432 v 0 c -9.784 -9.784 -25.647 -9.784 -35.432 0 l -44.566 44.566 c -9.784 9.784 -25.647 9.784 -35.432 0 l 0 0 c -9.784 -9.784 -25.647 -9.784 -35.432 0 l -251.841 251.841 c -9.784 9.784 -9.784 25.647 0 35.432 l 0 0 c 9.784 9.784 25.647 9.784 35.432 0 l 44.566 -44.566 c 9.784 -9.784 25.647 -9.784 35.431 0 h 0 c 9.784 9.784 9.784 25.647 0 35.432 l -44.566 44.566 c -9.784 9.784 -9.784 25.647 0 35.432 l 0 0 c 9.784 9.784 9.784 25.647 0 35.432 l -21.868 21.868 c -9.784 9.784 -9.784 25.647 0 35.432 l 0 0 c 9.784 9.784 25.647 9.784 35.432 0 l 54.642 -54.642 c 9.784 -9.784 25.647 -9.784 35.432 0 l 0 0 c 9.784 9.784 25.647 9.784 35.432 0 l 41.909 -41.909 C -190.822 937.354 -174.959 937.354 -165.175 947.138 z" stroke-linecap="round" data-darkreader-inline-stroke=""/>
</g>
		<g transform="matrix(1 0 0 1 -149.2785 902.0685)" id="Graphic_Elements" clip-path="url(#CLIPPATH_45)">
<linearGradient id="SVGID_33" gradientUnits="userSpaceOnUse" gradientTransform="matrix(1 0 0 1 0 0)" x1="-9.3825" y1="1502.0693" x2="510.8239" y2="1502.0693">
<stop offset="0%" style="stop-color: rgb(68, 42, 255); stop-opacity: 1; --darkreader-inline-stopcolor: #4f37ff;" data-darkreader-inline-stopcolor=""/>
<stop offset="99.92%" style="stop-color: rgb(182, 144, 252); stop-opacity: 1; --darkreader-inline-stopcolor: #ab80fc;" data-darkreader-inline-stopcolor=""/>
</linearGradient>
<clipPath id="CLIPPATH_45">
	<rect transform="matrix(1 0 0 1 149.2785 -902.0685)" id="SVGID_00000067201863293425637530000003733348231315325886_" x="-400" y="-600" rx="0" ry="0" width="800" height="1200"/>
</clipPath>
<path style="stroke: none; stroke-width: 1; stroke-dasharray: none; stroke-linecap: butt; stroke-dashoffset: 0; stroke-linejoin: miter; stroke-miterlimit: 4; fill: url(&quot;#SVGID_33&quot;); fill-rule: nonzero; opacity: 1; --darkreader-inline-stroke: none;" transform=" translate(-250.7215, -1502.0685)" d="M 16.376 1565.872 l -18.254 18.255 c -10.006 10.006 -10.006 26.229 0 36.235 h 0 c 10.006 10.006 26.229 10.006 36.235 0 l 69.948 -69.948 c 10.006 -10.006 26.229 -10.006 36.235 0 l 0 0 c 10.006 10.006 10.006 26.229 0 36.235 l -69.948 69.948 c -10.006 10.006 -10.006 26.229 0 36.235 v 0 c 10.006 10.006 26.229 10.006 36.235 0 l 38.898 -38.899 c 10.006 -10.006 26.229 -10.006 36.235 0 v 0 c 10.006 10.006 10.006 26.229 0 36.235 l -69.459 69.459 c -10.006 10.006 -10.006 26.229 0 36.235 l 0 0 c 10.006 10.006 26.229 10.006 36.235 0 l 285.126 -285.126 c 10.006 -10.006 10.006 -26.229 0 -36.235 l 0 0 c -10.006 -10.006 -10.006 -26.229 0 -36.235 l 69.459 -69.459 c 10.006 -10.006 10.006 -26.229 0 -36.235 h 0 c -10.006 -10.006 -26.229 -10.006 -36.235 0 l -38.898 38.898 c -10.006 10.006 -26.229 10.006 -36.235 0 l 0 0 c -10.006 -10.006 -10.006 -26.229 0 -36.235 l 69.948 -69.948 c 10.006 -10.006 10.006 -26.229 0 -36.235 l 0 0 c -10.006 -10.006 -26.229 -10.006 -36.235 0 l -69.948 69.948 c -10.006 10.006 -26.229 10.006 -36.235 0 l 0 0 c -10.006 -10.006 -10.006 -26.229 0 -36.235 l 18.254 -18.255 c 10.006 -10.006 10.006 -26.229 0 -36.235 h 0 c -10.006 -10.006 -26.229 -10.006 -36.235 0 L 16.376 1493.403 c -10.006 10.006 -10.006 26.229 0 36.235 v 0 C 26.382 1539.644 26.382 1555.866 16.376 1565.872 z" stroke-linecap="round" data-darkreader-inline-stroke=""/>
</g>
		<g transform="matrix(1 0 0 1 -242.9015 661.0914)" id="Graphic_Elements" clip-path="url(#CLIPPATH_46)">
<linearGradient id="SVGID_34" gradientUnits="userSpaceOnUse" gradientTransform="matrix(1 0 0 1 0 0)" x1="-107.3088" y1="1261.0918" x2="421.5056" y2="1261.0918">
<stop offset="0%" style="stop-color: rgb(241, 144, 252); stop-opacity: 1; --darkreader-inline-stopcolor: #ef80fc;" data-darkreader-inline-stopcolor=""/>
<stop offset="100%" style="stop-color: rgb(118, 75, 250); stop-opacity: 1; --darkreader-inline-stopcolor: #794ffa;" data-darkreader-inline-stopcolor=""/>
</linearGradient>
<clipPath id="CLIPPATH_46">
	<rect transform="matrix(1 0 0 1 242.9015 -661.0914)" id="SVGID_00000067201863293425637530000003733348231315325886_" x="-400" y="-600" rx="0" ry="0" width="800" height="1200"/>
</clipPath>
<path style="stroke: none; stroke-width: 1; stroke-dasharray: none; stroke-linecap: butt; stroke-dashoffset: 0; stroke-linejoin: miter; stroke-miterlimit: 4; fill: url(&quot;#SVGID_34&quot;); fill-rule: nonzero; opacity: 1; --darkreader-inline-stroke: none;" transform=" translate(-157.0985, -1261.0914)" d="M 30.132 1497.768 l 26.147 -26.147 c 10.006 -10.006 26.229 -10.006 36.235 0 l 0 0 c 10.006 10.006 26.229 10.006 36.235 0 l 285.343 -285.343 c 9.886 -9.886 9.886 -25.915 0 -35.801 l -0.434 -0.434 c -9.886 -9.886 -25.915 -9.886 -35.801 0 l -26.364 26.364 c -10.006 10.006 -26.229 10.006 -36.235 0 l 0 0 c -10.006 -10.006 -10.006 -26.229 0 -36.235 l 7.576 -7.576 c 9.886 -9.886 9.886 -25.915 0 -35.801 l -0.434 -0.434 c -9.886 -9.886 -9.886 -25.915 0 -35.801 h 0 c 9.886 -9.886 9.886 -25.915 0 -35.801 l -0.434 -0.434 c -9.886 -9.886 -25.915 -9.886 -35.801 0 l -28.592 28.592 c -9.886 9.886 -25.915 9.886 -35.801 0 l -0.434 -0.434 c -9.886 -9.886 -25.915 -9.886 -35.801 0 l -285.342 285.343 c -10.006 10.006 -10.006 26.229 0 36.235 h 0 c 10.006 10.006 26.229 10.006 36.235 0 l 28.592 -28.592 c 9.766 -9.766 25.601 -9.766 35.367 0 l 0.867 0.868 c 9.766 9.766 9.766 25.601 0 35.367 l 0 0 c -10.006 10.006 -10.006 26.229 0 36.234 l 0 0 c 10.006 10.006 10.006 26.229 0 36.235 l -7.359 7.359 c -10.006 10.006 -10.006 26.229 0 36.235 h 0 C 3.903 1507.774 20.126 1507.774 30.132 1497.768 z" stroke-linecap="round" data-darkreader-inline-stroke=""/>
</g>
		<g transform="matrix(1 0 0 1 -494.9792 602.8932)" id="Graphic_Elements" clip-path="url(#CLIPPATH_47)">
<linearGradient id="SVGID_35" gradientUnits="userSpaceOnUse" gradientTransform="matrix(1 0 0 1 0 0)" x1="-424.4893" y1="1202.8936" x2="234.5271" y2="1202.8936">
<stop offset="0%" style="stop-color: rgb(241, 144, 252); stop-opacity: 1; --darkreader-inline-stopcolor: #ef80fc;" data-darkreader-inline-stopcolor=""/>
<stop offset="100%" style="stop-color: rgb(68, 65, 250); stop-opacity: 1; --darkreader-inline-stopcolor: #4888fa;" data-darkreader-inline-stopcolor=""/>
</linearGradient>
<clipPath id="CLIPPATH_47">
	<rect transform="matrix(1 0 0 1 494.9792 -602.8933)" id="SVGID_00000067201863293425637530000003733348231315325886_" x="-400" y="-600" rx="0" ry="0" width="800" height="1200"/>
</clipPath>
<path style="stroke: none; stroke-width: 1; stroke-dasharray: none; stroke-linecap: butt; stroke-dashoffset: 0; stroke-linejoin: miter; stroke-miterlimit: 4; fill: url(&quot;#SVGID_35&quot;); fill-rule: nonzero; opacity: 1; --darkreader-inline-stroke: none;" transform=" translate(94.9792, -1202.8933)" d="M -277.163 1273.813 l -139.822 139.822 c -10.006 10.006 -10.006 26.229 0 36.235 v 0 c 10.006 10.006 26.229 10.006 36.235 0 l 55.709 -55.709 c 10.006 -10.006 26.229 -10.006 36.235 0 l 0 0 c 10.006 10.006 10.006 26.229 0 36.235 l -78.358 78.358 c -10.006 10.006 -10.006 26.229 0 36.235 l 0 0 c 10.006 10.006 26.229 10.006 36.235 0 l 16.221 -16.221 c 10.006 -10.006 26.229 -10.006 36.235 0 l 0 0 c 10.006 10.006 26.229 10.006 36.235 0 l 34.482 -34.481 c 10.006 -10.006 26.229 -10.006 36.235 0 l 0.877 0.877 c 9.522 9.522 9.522 24.96 0 34.481 v 0 c -10.006 10.006 -10.006 26.229 0 36.235 l 0 0 c 10.006 10.006 26.229 10.006 36.235 0 l 361.617 -361.617 c 9.764 -9.764 9.764 -25.594 0 -35.358 l -0.877 -0.877 c -9.764 -9.764 -9.764 -25.594 0 -35.358 l 0 0 c 9.764 -9.764 9.764 -25.594 0 -35.358 l -0.877 -0.877 c -9.764 -9.764 -25.594 -9.764 -35.358 0 l -35.358 35.358 c -9.764 9.764 -25.594 9.764 -35.358 0 l -0.877 -0.877 c -9.764 -9.764 -25.594 -9.764 -35.358 0 l -16.659 16.659 c -10.006 10.006 -26.229 10.006 -36.235 0 l 0 0 c -10.006 -10.006 -10.006 -26.229 0 -36.235 l 78.797 -78.797 c 9.764 -9.764 9.764 -25.594 0 -35.358 l -0.877 -0.877 c -9.764 -9.764 -25.594 -9.764 -35.358 0 l -56.147 56.147 c -10.006 10.006 -26.229 10.006 -36.235 0 l 0 0 c -10.006 -10.006 -10.006 -26.229 0 -36.235 l 140.26 -140.26 c 9.764 -9.764 9.764 -25.594 0 -35.358 l -0.877 -0.877 c -9.764 -9.764 -25.594 -9.764 -35.358 0 l -361.617 361.617 c -10.006 10.006 -10.006 26.229 0 36.235 l 0 0 C -267.157 1247.584 -267.157 1263.807 -277.163 1273.813 z" stroke-linecap="round" data-darkreader-inline-stroke=""/>
</g>
		<g transform="matrix(1 0 0 1 -267.224 371.766)" id="Graphic_Elements" clip-path="url(#CLIPPATH_48)">
<linearGradient id="SVGID_36" gradientUnits="userSpaceOnUse" gradientTransform="matrix(1 0 0 1 -132.776 -971.766)" x1="107.1547" y1="971.7661" x2="158.3983" y2="971.7661">
<stop offset="0%" style="stop-color: rgb(118, 75, 250); stop-opacity: 1; --darkreader-inline-stopcolor: #794ffa;" data-darkreader-inline-stopcolor=""/>
<stop offset="100%" style="stop-color: rgb(241, 144, 252); stop-opacity: 1; --darkreader-inline-stopcolor: #ef80fc;" data-darkreader-inline-stopcolor=""/>
</linearGradient>
<clipPath id="CLIPPATH_48">
	<rect transform="matrix(1 0 0 1 267.224 -371.766)" id="SVGID_00000067201863293425637530000003733348231315325886_" x="-400" y="-600" rx="0" ry="0" width="800" height="1200"/>
</clipPath>
<circle style="stroke: none; stroke-width: 1; stroke-dasharray: none; stroke-linecap: butt; stroke-dashoffset: 0; stroke-linejoin: miter; stroke-miterlimit: 4; fill: url(&quot;#SVGID_36&quot;); fill-rule: nonzero; opacity: 1; --darkreader-inline-stroke: none;" cx="0" cy="0" r="25.622" data-darkreader-inline-stroke=""/>
</g>
		<g transform="matrix(1 0 0 1 -366.637 64.023)" id="Graphic_Elements" clip-path="url(#CLIPPATH_49)">
<linearGradient id="SVGID_37" gradientUnits="userSpaceOnUse" gradientTransform="matrix(1 0 0 1 -33.363 -664.023)" x1="7.7413" y1="664.0227" x2="58.985" y2="664.0227">
<stop offset="0%" style="stop-color: rgb(75, 75, 250); stop-opacity: 1; --darkreader-inline-stopcolor: #4f8efa;" data-darkreader-inline-stopcolor=""/>
<stop offset="100%" style="stop-color: rgb(241, 144, 252); stop-opacity: 1; --darkreader-inline-stopcolor: #ef80fc;" data-darkreader-inline-stopcolor=""/>
</linearGradient>
<clipPath id="CLIPPATH_49">
	<rect transform="matrix(1 0 0 1 366.637 -64.023)" id="SVGID_00000067201863293425637530000003733348231315325886_" x="-400" y="-600" rx="0" ry="0" width="800" height="1200"/>
</clipPath>
<circle style="stroke: none; stroke-width: 1; stroke-dasharray: none; stroke-linecap: butt; stroke-dashoffset: 0; stroke-linejoin: miter; stroke-miterlimit: 4; fill: url(&quot;#SVGID_37&quot;); fill-rule: nonzero; opacity: 1; --darkreader-inline-stroke: none;" cx="0" cy="0" r="25.622" data-darkreader-inline-stroke=""/>
</g>
		<g transform="matrix(1 0 0 1 58.3853 733.8918)" id="Graphic_Elements" clip-path="url(#CLIPPATH_50)">
<linearGradient id="SVGID_38" gradientUnits="userSpaceOnUse" gradientTransform="matrix(0 1 1 0 -404.855 404.855)" x1="597.1092" y1="863.2417" x2="1260.9634" y2="863.2417">
<stop offset="0%" style="stop-color: rgb(58, 82, 199); stop-opacity: 1; --darkreader-inline-stopcolor: #4d84cd;" data-darkreader-inline-stopcolor=""/>
<stop offset="100%" style="stop-color: rgb(241, 144, 252); stop-opacity: 1; --darkreader-inline-stopcolor: #ef80fc;" data-darkreader-inline-stopcolor=""/>
</linearGradient>
<clipPath id="CLIPPATH_50">
	<rect transform="matrix(1 0 0 1 -58.3852 -733.8918)" id="SVGID_00000067201863293425637530000003733348231315325886_" x="-400" y="-600" rx="0" ry="0" width="800" height="1200"/>
</clipPath>
<path style="stroke: none; stroke-width: 1; stroke-dasharray: none; stroke-linecap: butt; stroke-dashoffset: 0; stroke-linejoin: miter; stroke-miterlimit: 4; fill: url(&quot;#SVGID_38&quot;); fill-rule: nonzero; opacity: 1; --darkreader-inline-stroke: none;" transform=" translate(-458.3852, -1333.8918)" d="M 356.737 1658.404 l -0.434 -0.434 c -9.885 -9.887 -9.884 -25.916 0.002 -35.802 l 4.25 -4.25 c 9.886 -9.887 9.887 -25.915 0.002 -35.802 l -0.434 -0.434 c -9.885 -9.888 -9.884 -25.917 0.002 -35.803 l 38.328 -38.328 c 10.006 -10.006 10.006 -26.229 0 -36.235 l 0 0 c -10.006 -10.006 -26.229 -10.006 -36.235 0 l -56.647 56.647 c -9.886 9.886 -25.914 9.886 -35.8 -0.001 l -0.434 -0.434 c -9.886 -9.887 -9.885 -25.916 0.001 -35.802 l 124.661 -124.661 c 10.006 -10.006 10.006 -26.229 0 -36.235 l 0 0 c -10.006 -10.006 -26.229 -10.006 -36.235 0 l -124.662 124.662 c -9.886 9.886 -25.915 9.886 -35.801 0 l -0.434 -0.434 c -9.886 -9.887 -9.885 -25.916 0.001 -35.802 l 285.341 -285.342 c 10.006 -10.006 26.229 -10.006 36.235 0 v 0 c 10.006 10.006 26.229 10.006 36.235 0 l 124.445 -124.445 c 10.006 -10.006 26.229 -10.006 36.235 0 l 0 0 c 10.006 10.006 10.006 26.229 0 36.235 l -124.445 124.446 c -10.006 10.006 -10.006 26.229 0 36.235 h 0 c 10.006 10.006 26.229 10.006 36.235 0 l 56.429 -56.429 c 10.006 -10.006 26.229 -10.006 36.235 0 h 0 c 10.006 10.006 10.006 26.229 0 36.235 l -38.114 38.114 c -10.006 10.006 -10.006 26.229 0 36.235 l 0 0 c 10.006 10.006 10.006 26.229 0 36.235 l -3.82 3.82 c -10.006 10.006 -10.006 26.229 0 36.235 h 0 c 10.006 10.006 10.006 26.229 0 36.235 l -285.342 285.343 C 382.652 1668.29 366.623 1668.29 356.737 1658.404 z" stroke-linecap="round" data-darkreader-inline-stroke=""/>
</g>
		<g transform="matrix(1 0 0 1 139.649 502.206)" id="Graphic_Elements" clip-path="url(#CLIPPATH_51)">
<linearGradient id="SVGID_39" gradientUnits="userSpaceOnUse" gradientTransform="matrix(1 0 0 1 -539.649 -1102.206)" x1="514.0267" y1="1102.2056" x2="565.2704" y2="1102.2056">
<stop offset="0%" style="stop-color: rgb(118, 75, 250); stop-opacity: 1; --darkreader-inline-stopcolor: #794ffa;" data-darkreader-inline-stopcolor=""/>
<stop offset="100%" style="stop-color: rgb(241, 144, 252); stop-opacity: 1; --darkreader-inline-stopcolor: #ef80fc;" data-darkreader-inline-stopcolor=""/>
</linearGradient>
<clipPath id="CLIPPATH_51">
	<rect transform="matrix(1 0 0 1 -139.649 -502.206)" id="SVGID_00000067201863293425637530000003733348231315325886_" x="-400" y="-600" rx="0" ry="0" width="800" height="1200"/>
</clipPath>
<circle style="stroke: none; stroke-width: 1; stroke-dasharray: none; stroke-linecap: butt; stroke-dashoffset: 0; stroke-linejoin: miter; stroke-miterlimit: 4; fill: url(&quot;#SVGID_39&quot;); fill-rule: nonzero; opacity: 1; --darkreader-inline-stroke: none;" cx="0" cy="0" r="25.622" data-darkreader-inline-stroke=""/>
</g>
</g>
</g>
</svg>