<?xml version="1.0" encoding="utf-8"?>
<!-- Generator: Adobe Illustrator 27.5.0, SVG Export Plug-In . SVG Version: 6.00 Build 0)  -->
<svg version="1.1" xmlns="http://www.w3.org/2000/svg" xmlns:xlink="http://www.w3.org/1999/xlink" x="0px" y="0px"
	 viewBox="0 0 800 1200" style="enable-background:new 0 0 800 1200;" xml:space="preserve">
<g id="Background">
	<linearGradient id="SVGID_1_" gradientUnits="userSpaceOnUse" x1="-100" y1="1100" x2="900" y2="100">
		<stop  offset="0" style="stop-color:#D4D9FA"/>
		<stop  offset="0.998" style="stop-color:#F0C7FF"/>
	</linearGradient>
	<rect style="fill:url(#SVGID_1_);" width="800" height="1200"/>
</g>
<g id="Graphic_Elements">
	<g>
		<defs>
			<rect id="SVGID_00000034083635145461148800000005289368377228884865_" width="800" height="1200"/>
		</defs>
		<clipPath id="SVGID_00000067201863293425637530000003733348231315325886_">
			<use xlink:href="#SVGID_00000034083635145461148800000005289368377228884865_"  style="overflow:visible;"/>
		</clipPath>
		<g style="clip-path:url(#SVGID_00000067201863293425637530000003733348231315325886_);">
			<g>
				
					<linearGradient id="SVGID_00000114792079037626353560000011013013557952280721_" gradientUnits="userSpaceOnUse" x1="425.5979" y1="-51.4998" x2="1089.4521" y2="-51.4998">
					<stop  offset="0" style="stop-color:#3A0BC7"/>
					<stop  offset="1" style="stop-color:#F190FC"/>
				</linearGradient>
				<path style="fill:url(#SVGID_00000114792079037626353560000011013013557952280721_);" d="M1082.038-153.149l-0.434-0.434
					c-9.887-9.885-25.916-9.884-35.802,0.002l-4.25,4.25c-9.887,9.886-25.915,9.887-35.802,0.002l-0.434-0.434
					c-9.888-9.885-25.917-9.884-35.803,0.002l-38.328,38.328c-10.006,10.006-26.229,10.006-36.235,0l0,0
					c-10.006-10.006-10.006-26.229,0-36.235l56.647-56.647c9.886-9.886,9.886-25.915-0.001-35.8l-0.434-0.434
					c-9.887-9.886-25.916-9.885-35.802,0.001L790.697-115.886c-10.006,10.006-26.229,10.006-36.235,0l0,0
					c-10.006-10.006-10.006-26.229,0-36.235l124.662-124.662c9.886-9.886,9.886-25.915,0-35.801l-0.434-0.434
					c-9.887-9.886-25.916-9.885-35.802,0.001L557.548-27.675c-10.006,10.006-10.006,26.229,0,36.235h0
					c10.006,10.006,10.006,26.229,0,36.235L433.102,169.24c-10.006,10.006-10.006,26.229,0,36.235v0
					c10.006,10.006,26.229,10.006,36.235,0L593.783,81.029c10.006-10.006,26.229-10.006,36.235,0l0,0
					c10.006,10.006,10.006,26.229,0,36.235l-56.429,56.429c-10.006,10.006-10.006,26.229,0,36.235v0
					c10.006,10.006,26.229,10.006,36.235,0l38.114-38.114c10.006-10.006,26.229-10.006,36.235,0l0,0
					c10.006,10.006,26.229,10.006,36.235,0l3.82-3.82c10.006-10.006,26.229-10.006,36.235,0v0c10.006,10.006,26.229,10.006,36.235,0
					l285.343-285.342C1091.924-127.234,1091.924-143.263,1082.038-153.149z"/>
				
					<linearGradient id="SVGID_00000183961333623207144560000017896451365309486001_" gradientUnits="userSpaceOnUse" x1="314.5621" y1="-144.5771" x2="903.7843" y2="-144.5771">
					<stop  offset="0" style="stop-color:#4B4BFA"/>
					<stop  offset="1" style="stop-color:#F190FC"/>
				</linearGradient>
				<path style="fill:url(#SVGID_00000183961333623207144560000017896451365309486001_);" d="M609.173-61.174L609.173-61.174
					c9.784,9.784,9.784,25.647,0,35.432L534.49,48.94c-9.784,9.784-9.784,25.647,0,35.432l0,0c9.784,9.784,9.784,25.647,0,35.431
					l-15.668,15.668c-9.784,9.784-9.784,25.647,0,35.432l0,0c9.784,9.784,25.648,9.784,35.432,0L806.096-80.939
					c9.784-9.784,9.784-25.647,0-35.432l0,0c-9.784-9.784-9.784-25.647,0-35.431l15.667-15.667c9.784-9.784,9.784-25.647,0-35.432v0
					c-9.784-9.784-9.784-25.647,0-35.431l74.683-74.683c9.784-9.784,9.784-25.647,0-35.431l0,0c-9.784-9.784-25.647-9.784-35.432,0
					l-41.909,41.909c-9.784,9.784-25.647,9.784-35.432,0h0c-9.784-9.784-25.647-9.784-35.432,0L693.6-251.896
					c-9.784,9.784-25.647,9.784-35.432,0v0c-9.784-9.784-9.784-25.647,0-35.432l21.868-21.868c9.784-9.784,9.784-25.647,0-35.432
					l0,0c-9.784-9.784-9.784-25.647,0-35.432l44.566-44.566c9.784-9.784,9.784-25.647,0-35.432l0,0
					c-9.784-9.784-25.647-9.784-35.431,0l-44.566,44.566c-9.784,9.784-25.647,9.784-35.432,0l0,0
					c-9.784-9.784-25.647-9.784-35.431,0L321.9-163.649c-9.784,9.784-9.784,25.647,0,35.431l0,0c9.784,9.784,25.647,9.784,35.431,0
					l44.566-44.566c9.784-9.784,25.647-9.784,35.432,0l0,0c9.784,9.784,9.784,25.647,0,35.432l-44.566,44.566
					c-9.784,9.784-9.784,25.647,0,35.432v0c9.784,9.784,9.784,25.647,0,35.431L370.895-0.055c-9.784,9.784-9.784,25.647,0,35.432
					l0,0c9.784,9.784,25.647,9.784,35.431,0l54.642-54.642c9.784-9.784,25.647-9.784,35.431,0h0c9.784,9.784,25.647,9.784,35.431,0
					l41.909-41.909C583.526-70.959,599.389-70.959,609.173-61.174z"/>
				
					<linearGradient id="SVGID_00000160899358448755950160000005613062146106646182_" gradientUnits="userSpaceOnUse" x1="711.9733" y1="217.4318" x2="763.2169" y2="217.4318">
					<stop  offset="0" style="stop-color:#764BFA"/>
					<stop  offset="1" style="stop-color:#F190FC"/>
				</linearGradient>
				<circle style="fill:url(#SVGID_00000160899358448755950160000005613062146106646182_);" cx="737.595" cy="217.432" r="25.622"/>
				
					<linearGradient id="SVGID_00000062888035035966930040000013043610936704231856_" gradientUnits="userSpaceOnUse" x1="322.3542" y1="66.9691" x2="373.5979" y2="66.9691">
					<stop  offset="0" style="stop-color:#4B4BFA"/>
					<stop  offset="1" style="stop-color:#F190FC"/>
				</linearGradient>
				<circle style="fill:url(#SVGID_00000062888035035966930040000013043610936704231856_);" cx="347.976" cy="66.969" r="25.622"/>
			</g>
			
				<linearGradient id="SVGID_00000065072255774620102670000001931261457780163970_" gradientUnits="userSpaceOnUse" x1="-393.378" y1="863.7355" x2="195.8441" y2="863.7355">
				<stop  offset="0" style="stop-color:#F1D8FC"/>
				<stop  offset="1" style="stop-color:#5530C7"/>
			</linearGradient>
			<path style="fill:url(#SVGID_00000065072255774620102670000001931261457780163970_);" d="M-165.175,947.138L-165.175,947.138
				c9.784,9.784,9.784,25.647,0,35.432l-74.683,74.683c-9.784,9.784-9.784,25.647,0,35.432h0c9.784,9.784,9.784,25.647,0,35.432
				l-15.667,15.667c-9.784,9.784-9.784,25.647,0,35.432l0,0c9.784,9.784,25.647,9.784,35.432,0L31.748,927.374
				c9.784-9.784,9.784-25.647,0-35.432l0,0c-9.784-9.784-9.784-25.647,0-35.432l15.667-15.667c9.784-9.784,9.784-25.647,0-35.432v0
				c-9.784-9.784-9.784-25.647,0-35.431l74.683-74.683c9.784-9.784,9.784-25.647,0-35.431l0,0c-9.784-9.784-25.647-9.784-35.431,0
				l-41.909,41.909c-9.784,9.784-25.647,9.784-35.431,0l0,0c-9.784-9.784-25.647-9.784-35.432,0l-54.642,54.642
				c-9.784,9.784-25.647,9.784-35.431,0l0,0c-9.784-9.784-9.784-25.647,0-35.431l21.868-21.868c9.784-9.784,9.784-25.647,0-35.432h0
				c-9.784-9.784-9.784-25.647,0-35.432l44.566-44.566c9.784-9.784,9.784-25.647,0-35.432v0c-9.784-9.784-25.647-9.784-35.432,0
				l-44.566,44.566c-9.784,9.784-25.647,9.784-35.432,0l0,0c-9.784-9.784-25.647-9.784-35.432,0l-251.841,251.841
				c-9.784,9.784-9.784,25.647,0,35.432l0,0c9.784,9.784,25.647,9.784,35.432,0l44.566-44.566c9.784-9.784,25.647-9.784,35.431,0h0
				c9.784,9.784,9.784,25.647,0,35.432l-44.566,44.566c-9.784,9.784-9.784,25.647,0,35.432l0,0c9.784,9.784,9.784,25.647,0,35.432
				l-21.868,21.868c-9.784,9.784-9.784,25.647,0,35.432l0,0c9.784,9.784,25.647,9.784,35.432,0l54.642-54.642
				c9.784-9.784,25.647-9.784,35.432,0l0,0c9.784,9.784,25.647,9.784,35.432,0l41.909-41.909
				C-190.822,937.354-174.959,937.354-165.175,947.138z"/>
			
				<linearGradient id="SVGID_00000127757129985363198960000006986737400567044526_" gradientUnits="userSpaceOnUse" x1="-9.3825" y1="1502.0693" x2="510.8239" y2="1502.0693">
				<stop  offset="0" style="stop-color:#442AFF"/>
				<stop  offset="0.9992" style="stop-color:#B690FC"/>
			</linearGradient>
			<path style="fill:url(#SVGID_00000127757129985363198960000006986737400567044526_);" d="M16.376,1565.872l-18.254,18.255
				c-10.006,10.006-10.006,26.229,0,36.235h0c10.006,10.006,26.229,10.006,36.235,0l69.948-69.948
				c10.006-10.006,26.229-10.006,36.235,0l0,0c10.006,10.006,10.006,26.229,0,36.235l-69.948,69.948
				c-10.006,10.006-10.006,26.229,0,36.235v0c10.006,10.006,26.229,10.006,36.235,0l38.898-38.899
				c10.006-10.006,26.229-10.006,36.235,0v0c10.006,10.006,10.006,26.229,0,36.235l-69.459,69.459
				c-10.006,10.006-10.006,26.229,0,36.235l0,0c10.006,10.006,26.229,10.006,36.235,0l285.126-285.126
				c10.006-10.006,10.006-26.229,0-36.235l0,0c-10.006-10.006-10.006-26.229,0-36.235l69.459-69.459
				c10.006-10.006,10.006-26.229,0-36.235h0c-10.006-10.006-26.229-10.006-36.235,0l-38.898,38.898
				c-10.006,10.006-26.229,10.006-36.235,0l0,0c-10.006-10.006-10.006-26.229,0-36.235l69.948-69.948
				c10.006-10.006,10.006-26.229,0-36.235l0,0c-10.006-10.006-26.229-10.006-36.235,0l-69.948,69.948
				c-10.006,10.006-26.229,10.006-36.235,0l0,0c-10.006-10.006-10.006-26.229,0-36.235l18.254-18.255
				c10.006-10.006,10.006-26.229,0-36.235h0c-10.006-10.006-26.229-10.006-36.235,0L16.376,1493.403
				c-10.006,10.006-10.006,26.229,0,36.235v0C26.382,1539.644,26.382,1555.866,16.376,1565.872z"/>
			
				<linearGradient id="SVGID_00000148634246008173699930000018273098687994276269_" gradientUnits="userSpaceOnUse" x1="-107.3088" y1="1261.0918" x2="421.5056" y2="1261.0918">
				<stop  offset="0" style="stop-color:#F190FC"/>
				<stop  offset="1" style="stop-color:#764BFA"/>
			</linearGradient>
			<path style="fill:url(#SVGID_00000148634246008173699930000018273098687994276269_);" d="M30.132,1497.768l26.147-26.147
				c10.006-10.006,26.229-10.006,36.235,0l0,0c10.006,10.006,26.229,10.006,36.235,0l285.343-285.343
				c9.886-9.886,9.886-25.915,0-35.801l-0.434-0.434c-9.886-9.886-25.915-9.886-35.801,0l-26.364,26.364
				c-10.006,10.006-26.229,10.006-36.235,0l0,0c-10.006-10.006-10.006-26.229,0-36.235l7.576-7.576
				c9.886-9.886,9.886-25.915,0-35.801l-0.434-0.434c-9.886-9.886-9.886-25.915,0-35.801h0c9.886-9.886,9.886-25.915,0-35.801
				l-0.434-0.434c-9.886-9.886-25.915-9.886-35.801,0l-28.592,28.592c-9.886,9.886-25.915,9.886-35.801,0l-0.434-0.434
				c-9.886-9.886-25.915-9.886-35.801,0l-285.342,285.343c-10.006,10.006-10.006,26.229,0,36.235h0
				c10.006,10.006,26.229,10.006,36.235,0l28.592-28.592c9.766-9.766,25.601-9.766,35.367,0l0.867,0.868
				c9.766,9.766,9.766,25.601,0,35.367l0,0c-10.006,10.006-10.006,26.229,0,36.234l0,0c10.006,10.006,10.006,26.229,0,36.235
				l-7.359,7.359c-10.006,10.006-10.006,26.229,0,36.235h0C3.903,1507.774,20.126,1507.774,30.132,1497.768z"/>
			
				<linearGradient id="SVGID_00000156551157320290031180000016701774769680188038_" gradientUnits="userSpaceOnUse" x1="-424.4893" y1="1202.8936" x2="234.5271" y2="1202.8936">
				<stop  offset="0" style="stop-color:#F190FC"/>
				<stop  offset="1" style="stop-color:#4441FA"/>
			</linearGradient>
			<path style="fill:url(#SVGID_00000156551157320290031180000016701774769680188038_);" d="M-277.163,1273.813l-139.822,139.822
				c-10.006,10.006-10.006,26.229,0,36.235v0c10.006,10.006,26.229,10.006,36.235,0l55.709-55.709
				c10.006-10.006,26.229-10.006,36.235,0l0,0c10.006,10.006,10.006,26.229,0,36.235l-78.358,78.358
				c-10.006,10.006-10.006,26.229,0,36.235l0,0c10.006,10.006,26.229,10.006,36.235,0l16.221-16.221
				c10.006-10.006,26.229-10.006,36.235,0l0,0c10.006,10.006,26.229,10.006,36.235,0l34.482-34.481
				c10.006-10.006,26.229-10.006,36.235,0l0.877,0.877c9.522,9.522,9.522,24.96,0,34.481v0c-10.006,10.006-10.006,26.229,0,36.235
				l0,0c10.006,10.006,26.229,10.006,36.235,0l361.617-361.617c9.764-9.764,9.764-25.594,0-35.358l-0.877-0.877
				c-9.764-9.764-9.764-25.594,0-35.358l0,0c9.764-9.764,9.764-25.594,0-35.358l-0.877-0.877c-9.764-9.764-25.594-9.764-35.358,0
				l-35.358,35.358c-9.764,9.764-25.594,9.764-35.358,0l-0.877-0.877c-9.764-9.764-25.594-9.764-35.358,0l-16.659,16.659
				c-10.006,10.006-26.229,10.006-36.235,0l0,0c-10.006-10.006-10.006-26.229,0-36.235l78.797-78.797
				c9.764-9.764,9.764-25.594,0-35.358l-0.877-0.877c-9.764-9.764-25.594-9.764-35.358,0l-56.147,56.147
				c-10.006,10.006-26.229,10.006-36.235,0l0,0c-10.006-10.006-10.006-26.229,0-36.235l140.26-140.26
				c9.764-9.764,9.764-25.594,0-35.358l-0.877-0.877c-9.764-9.764-25.594-9.764-35.358,0l-361.617,361.617
				c-10.006,10.006-10.006,26.229,0,36.235l0,0C-267.157,1247.584-267.157,1263.807-277.163,1273.813z"/>
			
				<linearGradient id="SVGID_00000173140198799884650910000012607277516643057292_" gradientUnits="userSpaceOnUse" x1="107.1547" y1="971.7661" x2="158.3983" y2="971.7661">
				<stop  offset="0" style="stop-color:#764BFA"/>
				<stop  offset="1" style="stop-color:#F190FC"/>
			</linearGradient>
			<circle style="fill:url(#SVGID_00000173140198799884650910000012607277516643057292_);" cx="132.776" cy="971.766" r="25.622"/>
			
				<linearGradient id="SVGID_00000162314118458990524470000016049305221719485367_" gradientUnits="userSpaceOnUse" x1="7.7413" y1="664.0227" x2="58.985" y2="664.0227">
				<stop  offset="0" style="stop-color:#4B4BFA"/>
				<stop  offset="1" style="stop-color:#F190FC"/>
			</linearGradient>
			<circle style="fill:url(#SVGID_00000162314118458990524470000016049305221719485367_);" cx="33.363" cy="664.023" r="25.622"/>
			
				<linearGradient id="SVGID_00000103944764161410046680000001599319818897344906_" gradientUnits="userSpaceOnUse" x1="597.1092" y1="863.2417" x2="1260.9634" y2="863.2417" gradientTransform="matrix(0 1 1 0 -404.855 404.855)">
				<stop  offset="0" style="stop-color:#3A52C7"/>
				<stop  offset="1" style="stop-color:#F190FC"/>
			</linearGradient>
			<path style="fill:url(#SVGID_00000103944764161410046680000001599319818897344906_);" d="M356.737,1658.404l-0.434-0.434
				c-9.885-9.887-9.884-25.916,0.002-35.802l4.25-4.25c9.886-9.887,9.887-25.915,0.002-35.802l-0.434-0.434
				c-9.885-9.888-9.884-25.917,0.002-35.803l38.328-38.328c10.006-10.006,10.006-26.229,0-36.235l0,0
				c-10.006-10.006-26.229-10.006-36.235,0l-56.647,56.647c-9.886,9.886-25.914,9.886-35.8-0.001l-0.434-0.434
				c-9.886-9.887-9.885-25.916,0.001-35.802l124.661-124.661c10.006-10.006,10.006-26.229,0-36.235l0,0
				c-10.006-10.006-26.229-10.006-36.235,0l-124.662,124.662c-9.886,9.886-25.915,9.886-35.801,0l-0.434-0.434
				c-9.886-9.887-9.885-25.916,0.001-35.802l285.341-285.342c10.006-10.006,26.229-10.006,36.235,0v0
				c10.006,10.006,26.229,10.006,36.235,0l124.445-124.445c10.006-10.006,26.229-10.006,36.235,0l0,0
				c10.006,10.006,10.006,26.229,0,36.235l-124.445,124.446c-10.006,10.006-10.006,26.229,0,36.235h0
				c10.006,10.006,26.229,10.006,36.235,0l56.429-56.429c10.006-10.006,26.229-10.006,36.235,0h0
				c10.006,10.006,10.006,26.229,0,36.235l-38.114,38.114c-10.006,10.006-10.006,26.229,0,36.235l0,0
				c10.006,10.006,10.006,26.229,0,36.235l-3.82,3.82c-10.006,10.006-10.006,26.229,0,36.235h0
				c10.006,10.006,10.006,26.229,0,36.235l-285.342,285.343C382.652,1668.29,366.623,1668.29,356.737,1658.404z"/>
			
				<linearGradient id="SVGID_00000055678447927840468000000007223985163980817081_" gradientUnits="userSpaceOnUse" x1="514.0267" y1="1102.2056" x2="565.2704" y2="1102.2056">
				<stop  offset="0" style="stop-color:#764BFA"/>
				<stop  offset="1" style="stop-color:#F190FC"/>
			</linearGradient>
			<circle style="fill:url(#SVGID_00000055678447927840468000000007223985163980817081_);" cx="539.649" cy="1102.206" r="25.622"/>
		</g>
	</g>
</g>
</svg>
